<?xml version="1.0" encoding="utf-8"?>
<!-- Generator: Adobe Illustrator 21.0.2, SVG Export Plug-In . SVG Version: 6.00 Build 0)  -->
<svg version="1.1" id="Layer_1" xmlns="http://www.w3.org/2000/svg" xmlns:xlink="http://www.w3.org/1999/xlink" x="0px" y="0px"
	 viewBox="0 0 75 40" style="enable-background:new 0 0 75 40;" xml:space="preserve">
<style type="text/css">
	.st0{fill:#4E4F51;}
	.st1{fill:#B8D668;}
	.st2{fill:#B2D235;}
	.st3{fill:#85A52B;}
	.st4{opacity:0.74;fill:url(#SVGID_1_);}
	.st5{opacity:0.74;fill:url(#SVGID_2_);}
</style>
<path class="st0" d="M2,35.8V4h14.7v5.7H8.3v7.2h7.2v5.7H8.3v7.5h8.3v5.7H2z"/>
<path class="st0" d="M64,35.9c-3.6,0-5.5-1.4-6.9-3.1c-2.5-3-2.4-8.6-2.4-12.8c0-4.2-0.2-9.8,2.4-12.8C58.5,5.4,60.4,4,64,4
	c2.7,0,4.8,0.9,6.3,2.3c1.7,1.7,2.6,4.1,2.7,7h-6.3c0-1.3-0.3-3.7-2.7-3.7c-1.2,0-1.7,0.5-2.1,1.2c-0.8,1.4-0.8,5.3-0.8,9.1
	s0.1,7.7,0.8,9.1c0.4,0.7,0.9,1.2,2.1,1.2c2.1,0,2.7-1.9,2.7-3.6v-3.2H64v-5h9v7.9C73,32.5,69.4,35.9,64,35.9z"/>
<polygon class="st1" points="18.1,4 27.4,4 30.4,11.7 25.8,24.1 "/>
<polygon class="st2" points="47.2,4 55.9,4 51.6,15.9 "/>
<polygon class="st3" points="48.8,23.6 44.3,35.8 37.4,16.1 41.7,4 "/>
<polygon class="st2" points="33.1,4 41.7,4 30.3,35.8 25.8,24.1 "/>
<linearGradient id="SVGID_1_" gradientUnits="userSpaceOnUse" x1="22.7867" y1="7.8634" x2="29.8672" y2="19.2815">
	<stop  offset="0" style="stop-color:#B8D668;stop-opacity:0"/>
	<stop  offset="1" style="stop-color:#000000;stop-opacity:0.3"/>
</linearGradient>
<polygon class="st4" points="18.1,4 27.4,4 30.4,11.6 25.8,24.1 "/>
<linearGradient id="SVGID_2_" gradientUnits="userSpaceOnUse" x1="44.7941" y1="23.1664" x2="39.2577" y2="13.0295">
	<stop  offset="0" style="stop-color:#85A52B;stop-opacity:0"/>
	<stop  offset="1" style="stop-color:#000000;stop-opacity:0.3"/>
</linearGradient>
<polygon class="st5" points="48.8,23.6 44.3,35.8 37.4,16.1 41.7,4 "/>
</svg>
